{"title":"Hell Baby 2013 720p WEB-DL AC3  XVID - SSRG","uid":8772592,"size":1397883389,"categoryP":"video","categoryS":"hd___movies","magnet":"?xt=urn:btih:07b3710917ab4388e82ef3d0f2119a17f753c888&amp;dn=Hell+Baby+2013+720p+WEB-DL+AC3++XVID+-+SSRG&amp;tr=udp%3A%2F%2Ftracker.openbittorrent.com%3A80&amp;tr=udp%3A%2F%2Fopen.demonii.com%3A1337&amp;tr=udp%3A%2F%2Ftracker.coppersurfer.tk%3A6969&amp;tr=udp%3A%2F%2Fexodus.desync.com%3A6969","seeders":1,"leechers":0,"uploader":"AliBaloch","files":-1,"time":1375488533,"description":" &lt;a href=&quot;http://i874.photobucket.com/albums/ab306/worldwide7477/Custom%20Covers/Hell-Baby-2013-SSRG-Custom-Movie-Cover-Worldwide7477_zps70de7667.png&quot; rel=&quot;nofollow&quot; target=&quot;_NEW&quot;&gt;http://i874.photobucket.com/albums/ab306/worldwide7477/Custom%20Covers/Hell-Baby-2013-SSRG-Custom-Movie-Cover-Worldwide7477_zps70de7667.png&lt;/a&gt;\n\nHell Baby 2013 720p WEB-DL AC3  XVID - SSRG\n\nFormat                                   : AVI\nFormat/Info                              : Audio Video Interleave\nFile size                                : 1.28 GiB\nDuration                                 : 1h 34mn\nOverall bit rate                         : 1 949 Kbps\n\nVideo\nFormat                                   : MPEG-4 Visual\nFormat profile                           : Advanced Simple@L5\nCodec ID                                 : XVID\nDuration                                 : 1h 34mn\nBit rate                                 : 1 556 Kbps\nWidth                                    : 1 280 pixels\nHeight                                   : 718 pixels\nDisplay aspect ratio                     : 16:9\nFrame rate                               : 23.976 fps\nColor space                              : YUV\nChroma subsampling                       : 4:2:0\nBit depth                                : 8 bits\nStream size                              : 1.02 GiB (80%)\n\nAudio\nFormat                                   : AC-3\nDuration                                 : 1h 34mn\nBit rate                                 : 384 Kbps\nChannel(s)                               : 6 channels\nChannel positions                        : Front: L C R, Side: L R, LFE\nSampling rate                            : 48.0 KHz\nBit depth                                : 16 bits\nCompression mode                         : Lossy\nStream size                              : 258 MiB (20%)\n &lt;a href=&quot;\nhttp://img11.imageshack.us/img11/4558/yq8m.png&quot; rel=&quot;nofollow&quot; target=&quot;_NEW&quot;&gt;\nhttp://img11.imageshack.us/img11/4558/yq8m.png&lt;/a&gt; &lt;a href=&quot;\nhttp://img819.imageshack.us/img819/677/kq7p.png&quot; rel=&quot;nofollow&quot; target=&quot;_NEW&quot;&gt;\nhttp://img819.imageshack.us/img819/677/kq7p.png&lt;/a&gt; &lt;a href=&quot;\nhttp://img801.imageshack.us/img801/2281/bqqm.png&quot; rel=&quot;nofollow&quot; target=&quot;_NEW&quot;&gt;\nhttp://img801.imageshack.us/img801/2281/bqqm.png&lt;/a&gt; &lt;a href=&quot;\nhttp://img838.imageshack.us/img838/4800/rig6.png&quot; rel=&quot;nofollow&quot; target=&quot;_NEW&quot;&gt;\nhttp://img838.imageshack.us/img838/4800/rig6.png&lt;/a&gt; &lt;a href=&quot;\nhttp://img850.imageshack.us/img850/7816/exkg.png&quot; rel=&quot;nofollow&quot; target=&quot;_NEW&quot;&gt;\nhttp://img850.imageshack.us/img850/7816/exkg.png&lt;/a&gt;","torrent":{"xt":"urn:btih:07b3710917ab4388e82ef3d0f2119a17f753c888","amp;dn":"Hell+Baby+2013+720p+WEB-DL+AC3++XVID+-+SSRG","amp;tr":["udp%3A%2F%2Ftracker.openbittorrent.com%3A80","udp%3A%2F%2Fopen.demonii.com%3A1337","udp%3A%2F%2Ftracker.coppersurfer.tk%3A6969","udp%3A%2F%2Fexodus.desync.com%3A6969"],"infoHash":"07b3710917ab4388e82ef3d0f2119a17f753c888","infoHashBuffer":{"type":"Buffer","data":[7,179,113,9,23,171,67,136,232,46,243,208,242,17,154,23,247,83,200,136]},"announce":[],"urlList":[]}}